<svg xmlns="http://www.w3.org/2000/svg" viewBox="0 0 125.09 118.9"><defs><style>.cls-1{fill:none;stroke:#478cbf;stroke-width:6px;}.cls-2{fill:#478cbf;}</style></defs><g id="Layer_2" data-name="Layer 2"><path class="cls-1" d="M35.7,26.69a63.79,63.79,0,0,0-9.09,6.59,2,2,0,0,1-2.43.16,77.78,77.78,0,0,0-8-4.55,2,2,0,0,0-2.36.42A75.1,75.1,0,0,0,4.71,41.17a2,2,0,0,0,0,2.08C7,46.79,9.9,50.75,11,52.15a2,2,0,0,1,.4,1.21V94.08c0,13.6,18.48,26.5,52.64,26.5,31.89,0,52.64-11.65,52.64-26.77V53.38a2,2,0,0,1,.42-1.23c1-1.28,3.53-4.68,6.16-8.87a2,2,0,0,0,0-2.14,77.1,77.1,0,0,0-9-11.85,2,2,0,0,0-2.36-.42,73.54,73.54,0,0,0-8,4.57,2,2,0,0,1-2.43-.17,62.17,62.17,0,0,0-9.09-6.58,2,2,0,0,1-1-2c.25-2,.71-6.2.83-10.55A2,2,0,0,0,91,12.29,74.82,74.82,0,0,0,77.74,7.74a2,2,0,0,0-2.21.95c-1,1.69-2.77,4.91-4.59,8.88a2,2,0,0,1-2,1.16,44.92,44.92,0,0,0-9.77,0,2,2,0,0,1-2.06-1.17,99.29,99.29,0,0,0-4.58-8.88,2,2,0,0,0-2.23-.95A75.27,75.27,0,0,0,37,12.28a2,2,0,0,0-1.18,1.91c.14,4.64.57,8.57.82,10.53A2,2,0,0,1,35.7,26.69Z" transform="translate(-1.44 -4.68)"/></g><g id="Layer_6" data-name="Layer 6"><path class="cls-2" d="M105.69,76.79V62.1A1.94,1.94,0,0,0,104,60.18l-7-.83a1.92,1.92,0,0,1-1.57-1.21l-1.06-2.7a1.93,1.93,0,0,1,.22-1.83l4.1-5.74a1.94,1.94,0,0,0-.21-2.5L88.07,35.11A2,2,0,0,0,85.54,35l-5.3,4a1.93,1.93,0,0,1-1.84.27l-3-1.15a1.94,1.94,0,0,1-1.23-1.54l-1-6.9A2,2,0,0,0,71.24,28L56.87,28A1.93,1.93,0,0,0,55,29.61l-1.14,7.13a1.91,1.91,0,0,1-1.13,1.46l-2.64,1.17a1.92,1.92,0,0,1-1.88-.19l-5.78-4a1.92,1.92,0,0,0-2.47.22L29.74,45.57a1.93,1.93,0,0,0-.2,2.49l3.91,5.43a2,2,0,0,1,.25,1.78l-1,2.77a2,2,0,0,1-1.52,1.26L24,60.43a1.93,1.93,0,0,0-1.63,1.91v14.6A1.94,1.94,0,0,0,24,78.86l7.07.94A1.91,1.91,0,0,1,32.64,81l1.09,2.63a1.94,1.94,0,0,1-.22,1.86L29.44,91.1a1.93,1.93,0,0,0,.21,2.5L40.05,104a1.93,1.93,0,0,0,2.5.19l5.46-4a1.94,1.94,0,0,1,1.82-.25l2.71,1a2,2,0,0,1,1.24,1.52l1,6.94A1.94,1.94,0,0,0,56.74,111H71.52a1.93,1.93,0,0,0,1.92-1.69l.86-6.84A2,2,0,0,1,75.43,101L78,99.83A1.91,1.91,0,0,1,80,100l5.64,4.15A1.92,1.92,0,0,0,88.1,104L98.54,93.52A1.93,1.93,0,0,0,98.72,91l-4-5.41a2,2,0,0,1-.24-1.91L95.56,81A1.94,1.94,0,0,1,97,79.83l7-1.14A1.92,1.92,0,0,0,105.69,76.79ZM64,89.35A19.84,19.84,0,1,1,83.84,69.51,19.84,19.84,0,0,1,64,89.35Z" transform="translate(-1.44 -4.68)"/></g></svg>